HIERARCHY
ROOT Hips
{
	OFFSET -3.958830 18.904000 13.208200
	CHANNELS 6 Xposition Yposition Zposition Zrotation Yrotation Xrotation 
	JOINT LHipJoint
	{
		OFFSET 0.000000 0.000000 0.000000
		CHANNELS 3 Zrotation Yrotation Xrotation
		JOINT LeftUpLeg
		{
			OFFSET 1.800000 -1.400000 0.085000
			CHANNELS 3 Zrotation Yrotation Xrotation
			JOINT LeftLeg
			{
				OFFSET 2.215000 -6.000000 0.000000
				CHANNELS 3 Zrotation Yrotation Xrotation
				JOINT LeftFoot
				{
					OFFSET 2.500000 -6.900000 0.000000
					CHANNELS 3 Zrotation Yrotation Xrotation
					JOINT LeftToeBase
					{
						OFFSET 0.200000 -0.500000 1.950000
						CHANNELS 3 Zrotation Yrotation Xrotation
						End Site
						{
							OFFSET 0.000000 0.000000 0.000000
						}
					}
				}
			}
		}
	}
	JOINT RHipJoint
	{
		OFFSET 0.000000 0.000000 0.000000
		CHANNELS 3 Zrotation Yrotation Xrotation
		JOINT RightUpLeg
		{
			OFFSET -1.800000 -1.400000 0.085000
			CHANNELS 3 Zrotation Yrotation Xrotation
			JOINT RightLeg
			{
				OFFSET -2.215000 -6.000000 0.000000
				CHANNELS 3 Zrotation Yrotation Xrotation
				JOINT RightFoot
				{
					OFFSET -2.500000 -6.900000 0.000000
					CHANNELS 3 Zrotation Yrotation Xrotation
					JOINT RightToeBase
					{
						OFFSET -0.200000 -0.500000 1.950000
						CHANNELS 3 Zrotation Yrotation Xrotation
						End Site
						{
							OFFSET 0.000000 0.000000 0.000000
						}
					}
				}
			}
		}
	}
	JOINT LowerBack
	{
		OFFSET 0.000000 0.000000 0.000000
		CHANNELS 3 Zrotation Yrotation Xrotation
		JOINT Spine
		{
			OFFSET -0.087000 1.940000 -0.288900
			CHANNELS 3 Zrotation Yrotation Xrotation
			JOINT Spine1
			{
				OFFSET 0.000000 1.950000 0.060000
				CHANNELS 3 Zrotation Yrotation Xrotation
				JOINT Neck
				{
					OFFSET 0.000000 0.000000 0.000000
					CHANNELS 3 Zrotation Yrotation Xrotation
					JOINT Neck1
					{
						OFFSET 0.000000 1.600000 0.340000
						CHANNELS 3 Zrotation Yrotation Xrotation
						JOINT Head
						{
							OFFSET 0.000000 1.667000 -0.240000
							CHANNELS 3 Zrotation Yrotation Xrotation
							End Site
							{
								OFFSET 0.000000 0.000000 0.000000
							}
						}
					}
				}
				JOINT LeftShoulder
				{
					OFFSET 0.000000 0.000000 0.000000
					CHANNELS 3 Zrotation Yrotation Xrotation
					JOINT LeftArm
					{
						OFFSET 2.700000 1.550000 -0.730000
						CHANNELS 3 Zrotation Yrotation Xrotation
						JOINT LeftForeArm
						{
							OFFSET 5.450000 0.000000 0.000000
							CHANNELS 3 Zrotation Yrotation Xrotation
							JOINT LeftHand
							{
								OFFSET 3.450000 0.000000 0.000000
								CHANNELS 3 Zrotation Yrotation Xrotation
								JOINT LeftHandIndex1
								{
									OFFSET 0.750000 0.000000 0.000000
									CHANNELS 3 Zrotation Yrotation Xrotation
									End Site
									{
										OFFSET 0.000000 0.000000 0.000000
									}
								}
							}
						}
					}
				}
				JOINT RightShoulder
				{
					OFFSET 0.000000 0.000000 0.000000
					CHANNELS 3 Zrotation Yrotation Xrotation
					JOINT RightArm
					{
						OFFSET -2.700000 1.550000 -0.730000
						CHANNELS 3 Zrotation Yrotation Xrotation
						JOINT RightForeArm
						{
							OFFSET -5.450000 0.000000 0.000000
							CHANNELS 3 Zrotation Yrotation Xrotation
							JOINT RightHand
							{
								OFFSET -3.450000 0.000000 0.000000
								CHANNELS 3 Zrotation Yrotation Xrotation
								JOINT RightHandIndex1
								{
									OFFSET -0.750000 0.000000 0.000000
									CHANNELS 3 Zrotation Yrotation Xrotation
									End Site
									{
										OFFSET 0.000000 0.000000 0.000000
									}
								}
							}
						}
					}
				}
			}
		}
	}
}
MOTION
Frames: 7
Frame Time: 0.016667
-0.629150 18.135410 -9.346870 -13.116042 -32.224695 1.246026 -16.044601 13.662462 4.655379 32.365983 -5.136511 -3.952423 -26.448870 15.654282 19.655535 0.803938 9.664615 1.058258 0.116050 0.122360 0.015100 17.576332 -8.963091 1.650419 -5.286056 0.369419 -22.545697 -1.381167 -2.743351 15.826011 0.013417 -1.968666 3.516342 0.113650 0.228340 0.206830 -0.917773 -6.277608 -8.068365 -23.583873 -3.895166 24.125818 -3.464151 -2.899411 14.910659 -0.125169 -0.696276 -10.205447 -10.465366 12.206261 57.419306 4.513680 9.343490 0.076610 -5.700295 -14.496031 -0.600469 7.470057 -28.627483 -3.216456 12.192429 -27.629742 -1.389887 -3.868249 3.030022 0.256750 0.119030 0.118170 0.091900 6.261560 13.427594 7.609178 -3.077791 -14.981827 -6.389912 -36.096477 65.142914 -17.795386 1.995726 -1.468807 -0.101110 0.157560 0.097550 -0.008830 
-0.420310 18.104730 -9.326480 -15.377166 -31.397934 4.109374 -15.828005 13.877307 4.283875 31.242475 -4.583945 -1.149960 -20.401021 12.918173 16.208953 0.671491 8.641961 1.443736 0.048820 0.019350 -0.040550 17.661761 -9.331481 1.902051 -4.682653 0.391448 -24.046282 -0.667240 -3.194198 17.424622 0.026228 -2.067406 3.475875 0.020330 0.222420 0.197760 -1.347105 -5.716267 -8.054552 -17.663370 -6.745556 22.857811 -7.127021 -5.104190 13.016581 0.792474 -2.310953 -11.690744 -15.330566 13.833712 58.369544 4.370830 8.036300 4.169950 -7.658604 -15.964671 0.480348 10.038891 -25.290615 -3.381688 9.513980 -25.726998 -0.477458 -3.820317 3.108328 0.241730 0.093110 0.097740 0.088220 6.968130 15.014214 8.648277 -6.402424 -18.549297 -4.554836 -27.377496 62.723182 -12.029892 2.179021 -1.696494 -0.080790 0.099540 0.111950 0.014350 
-0.264780 18.117560 -9.302960 -16.475433 -31.381183 6.093327 -15.767953 13.984802 4.109862 29.296940 -4.191397 0.232008 -18.681758 11.805325 14.120144 0.642586 8.136326 1.622503 0.026880 -0.029560 -0.037510 17.678639 -9.438242 2.029972 -3.459915 0.606212 -24.154021 -0.085145 -3.517832 18.557550 0.001602 -2.128726 3.437519 -0.036940 0.180100 0.196920 -1.457976 -5.576884 -7.982992 -16.104233 -7.954789 20.177503 -8.164879 -5.984943 12.407392 1.371281 -2.356747 -13.222720 -16.509231 15.477022 62.291886 5.652950 8.477820 6.724450 -8.650586 -16.786878 1.689869 10.689071 -21.393126 -3.053010 8.134360 -25.004193 -0.057978 -3.755344 3.150906 0.279520 0.047910 0.125660 0.067850 7.129023 15.721380 9.599255 -7.408680 -18.457805 -3.230362 -16.914508 54.860565 -5.047482 2.286588 -1.771576 -0.064970 0.054700 0.119950 0.004410 
-0.042630 18.137900 -9.345030 -17.485481 -32.474472 7.673247 -15.659475 14.320644 3.666652 26.227137 -3.399412 0.843814 -13.804148 10.396333 14.135477 0.555991 7.265126 1.956870 -0.005450 -0.064360 -0.059220 17.705893 -9.668337 2.289462 -2.263539 0.957114 -25.159353 -1.313371 -3.019862 17.501928 0.011879 -1.900898 3.541908 -0.097700 0.153060 0.175200 -1.564775 -5.385287 -7.873170 -15.961649 -8.105388 18.868773 -8.034624 -6.398116 11.722943 1.819857 -1.968382 -14.952975 -16.253291 14.968794 66.496616 5.989030 7.497170 9.366640 -9.343786 -17.891810 3.041339 11.615016 -16.015621 -2.992243 7.666119 -25.979898 0.198305 -3.674933 3.150545 0.305860 0.012070 0.156790 0.072580 7.151227 16.906372 10.890876 -6.805475 -17.666618 -2.800828 -12.103360 44.873869 -1.756126 2.338609 -1.669416 -0.048460 0.042740 0.107100 0.017600 
0.173990 18.158520 -9.366010 -18.551035 -33.694553 8.986006 -15.652801 14.434158 3.496070 24.180767 -2.944149 0.641601 -12.364191 9.750380 13.690634 0.510380 6.875896 2.117215 -0.046700 -0.117130 -0.089180 17.703404 -9.665138 2.438894 -1.168616 1.376970 -25.552216 -1.393907 -2.822062 16.747947 0.041101 -1.785935 3.600207 -0.131780 0.175150 0.152570 -1.551089 -5.417872 -7.809707 -15.796003 -8.355904 17.415265 -7.656863 -6.673278 11.841030 1.978779 -1.945719 -16.017338 -16.564444 15.332446 68.608694 6.552640 7.113950 11.711810 -9.527868 -17.712258 4.064657 10.764422 -12.932730 -2.474675 7.018316 -20.781145 0.209475 -3.685803 3.071799 0.307570 0.013670 0.137870 0.070900 7.111814 16.917908 11.470743 -6.641156 -15.297535 -2.163167 -9.606868 34.068578 -0.232384 2.385718 -1.515895 -0.066460 0.052620 0.122960 0.021740 
0.375460 18.202490 -9.466630 -20.729068 -36.271440 9.396071 -15.633742 14.342792 3.503184 24.424905 -2.865837 1.329728 -12.900716 10.005560 13.967017 0.555208 6.993451 2.082021 -0.031040 -0.092480 -0.068320 17.730645 -9.610424 2.624801 1.404164 2.339220 -25.411056 -2.300318 -2.526534 17.744178 0.014948 -1.805502 3.600110 -0.126470 0.156860 0.162210 -1.602399 -5.179129 -7.951197 -17.042215 -6.990426 19.301906 -6.270017 -6.003079 11.418041 1.818100 -0.971420 -16.173153 -12.868688 13.304333 68.431002 6.789290 7.372400 10.628260 -11.128514 -18.598938 4.307060 11.610113 -12.395060 -2.940645 9.270563 -14.107302 -0.319004 -3.782508 2.938143 0.314000 0.010480 0.159730 0.072620 8.888790 17.269690 11.948410 -6.238874 -14.467665 -1.891520 -9.829365 28.294265 -0.202193 2.422838 -1.418395 -0.055030 0.043160 0.103540 0.017730 
0.580020 18.229150 -9.554220 -21.609390 -36.569333 9.037686 -15.680995 14.361073 3.524897 25.135573 -3.059665 0.163416 -13.543425 10.578705 15.760956 0.595468 7.188341 1.994739 -0.027520 -0.063560 -0.072380 17.700408 -9.500299 2.640957 2.224045 2.646556 -25.151725 -2.493052 -2.522888 18.896355 0.005052 -1.910580 3.575251 -0.115110 0.160480 0.173180 -1.486415 -5.380367 -7.997282 -18.604587 -6.199373 21.231954 -4.250904 -5.847547 11.696552 1.608571 -0.628028 -15.744753 -11.410761 12.449330 67.289076 6.026680 7.942000 10.130240 -11.850773 -18.215885 4.321306 11.014993 -12.409882 -3.032446 10.394689 -11.619522 -0.503834 -3.848810 2.912518 0.274610 0.033750 0.159440 0.079070 9.955624 16.731542 11.708019 -6.386578 -15.206290 -1.909220 -12.332413 26.508058 -0.721173 2.447821 -1.422655 -0.034640 0.032740 0.089250 0.032030 
